{
  "header": {
    "keySignatures": [],
    "meta": [],
    "name": "",
    "ppq": 960,
    "tempos": [
      {
        "bpm": 130.00013000013,
        "ticks": 0
      }
    ],
    "timeSignatures": [
      {
        "ticks": 0,
        "timeSignature": [
          4,
          4
        ],
        "measures": 0
      }
    ]
  },
  "tracks": [
    {
      "channel": 0,
      "controlChanges": {},
      "pitchBends": [],
      "instrument": {
        "family": "piano",
        "number": 0,
        "name": "acoustic grand piano"
      },
      "name": "",
      "notes": [
        {
          "duration": 0.057692250000000556,
          "durationTicks": 120,
          "midi": 60,
          "name": "C4",
          "ticks": 17280,
          "time": 8.307683999999998,
          "velocity": 0.7559055118110236
        },
        {
          "duration": 0.057692250000000556,
          "durationTicks": 120,
          "midi": 60,
          "name": "C4",
          "ticks": 23040,
          "time": 11.076911999999998,
          "velocity": 0.7559055118110236
        },
        {
          "duration": 0.05769224999999878,
          "durationTicks": 120,
          "midi": 62,
          "name": "D4",
          "ticks": 24000,
          "time": 11.53845,
          "velocity": 0.7559055118110236
        },
        {
          "duration": 0.057692250000000556,
          "durationTicks": 120,
          "midi": 60,
          "name": "C4",
          "ticks": 24480,
          "time": 11.769218999999998,
          "velocity": 0.7559055118110236
        },
        {
          "duration": 0.057692250000000556,
          "durationTicks": 120,
          "midi": 64,
          "name": "E4",
          "ticks": 25440,
          "time": 12.230756999999999,
          "velocity": 0.7559055118110236
        },
        {
          "duration": 0.057692250000000556,
          "durationTicks": 120,
          "midi": 64,
          "name": "E4",
          "ticks": 26400,
          "time": 12.692294999999998,
          "velocity": 0.7559055118110236
        },
        {
          "duration": 0.11538449999999933,
          "durationTicks": 240,
          "midi": 65,
          "name": "F4",
          "ticks": 30720,
          "time": 14.769215999999998,
          "velocity": 0.7559055118110236
        },
        {
          "duration": 0.11538449999999933,
          "durationTicks": 240,
          "midi": 64,
          "name": "E4",
          "ticks": 31200,
          "time": 14.999984999999999,
          "velocity": 0.7559055118110236
        },
        {
          "duration": 0.11538449999999933,
          "durationTicks": 240,
          "midi": 62,
          "name": "D4",
          "ticks": 32640,
          "time": 15.692291999999998,
          "velocity": 0.7559055118110236
        },
        {
          "duration": 0.11538449999999756,
          "durationTicks": 240,
          "midi": 62,
          "name": "D4",
          "ticks": 33600,
          "time": 16.15383,
          "velocity": 0.7559055118110236
        },
        {
          "duration": 0.11538450000000111,
          "durationTicks": 240,
          "midi": 60,
          "name": "C4",
          "ticks": 34560,
          "time": 16.615367999999997,
          "velocity": 0.7559055118110236
        },
        {
          "duration": 0.11538449999999756,
          "durationTicks": 240,
          "midi": 62,
          "name": "D4",
          "ticks": 35040,
          "time": 16.846137,
          "velocity": 0.7559055118110236
        },
        {
          "duration": 0.11538449999999756,
          "durationTicks": 240,
          "midi": 65,
          "name": "F4",
          "ticks": 36000,
          "time": 17.307675,
          "velocity": 0.7559055118110236
        },
        {
          "duration": 0.11538450000000111,
          "durationTicks": 240,
          "midi": 65,
          "name": "F4",
          "ticks": 38400,
          "time": 18.461519999999997,
          "velocity": 0.7559055118110236
        },
        {
          "duration": 0.11538449999999756,
          "durationTicks": 240,
          "midi": 64,
          "name": "E4",
          "ticks": 38880,
          "time": 18.692289,
          "velocity": 0.7559055118110236
        },
        {
          "duration": 0.11538450000000111,
          "durationTicks": 240,
          "midi": 62,
          "name": "D4",
          "ticks": 40320,
          "time": 19.384596,
          "velocity": 0.7559055118110236
        },
        {
          "duration": 0.11538449999999756,
          "durationTicks": 240,
          "midi": 62,
          "name": "D4",
          "ticks": 41280,
          "time": 19.846134,
          "velocity": 0.7559055118110236
        },
        {
          "duration": 0.11538450000000111,
          "durationTicks": 240,
          "midi": 62,
          "name": "D4",
          "ticks": 42240,
          "time": 20.307671999999997,
          "velocity": 0.7559055118110236
        },
        {
          "duration": 0.11538449999999756,
          "durationTicks": 240,
          "midi": 60,
          "name": "C4",
          "ticks": 42720,
          "time": 20.538441,
          "velocity": 0.7559055118110236
        },
        {
          "duration": 0.11538450000000111,
          "durationTicks": 240,
          "midi": 64,
          "name": "E4",
          "ticks": 43680,
          "time": 20.999978999999996,
          "velocity": 0.7559055118110236
        },
        {
          "duration": 0.11538450000000111,
          "durationTicks": 240,
          "midi": 65,
          "name": "F4",
          "ticks": 46080,
          "time": 22.153823999999997,
          "velocity": 0.7559055118110236
        },
        {
          "duration": 0.11538449999999756,
          "durationTicks": 240,
          "midi": 64,
          "name": "E4",
          "ticks": 46560,
          "time": 22.384593,
          "velocity": 0.7559055118110236
        },
        {
          "duration": 0.11538449999999756,
          "durationTicks": 240,
          "midi": 62,
          "name": "D4",
          "ticks": 48000,
          "time": 23.0769,
          "velocity": 0.7559055118110236
        },
        {
          "duration": 0.11538450000000111,
          "durationTicks": 240,
          "midi": 62,
          "name": "D4",
          "ticks": 48960,
          "time": 23.538437999999996,
          "velocity": 0.7559055118110236
        },
        {
          "duration": 0.11538450000000111,
          "durationTicks": 240,
          "midi": 60,
          "name": "C4",
          "ticks": 49920,
          "time": 23.999975999999997,
          "velocity": 0.7559055118110236
        },
        {
          "duration": 0.11538449999999756,
          "durationTicks": 240,
          "midi": 62,
          "name": "D4",
          "ticks": 50400,
          "time": 24.230745,
          "velocity": 0.7559055118110236
        },
        {
          "duration": 0.11538450000000111,
          "durationTicks": 240,
          "midi": 65,
          "name": "F4",
          "ticks": 51360,
          "time": 24.692282999999996,
          "velocity": 0.7559055118110236
        },
        {
          "duration": 0.11538450000000111,
          "durationTicks": 240,
          "midi": 60,
          "name": "C4",
          "ticks": 52800,
          "time": 25.384589999999996,
          "velocity": 0.7559055118110236
        },
        {
          "duration": 0.11538449999999756,
          "durationTicks": 240,
          "midi": 62,
          "name": "D4",
          "ticks": 53280,
          "time": 25.615358999999998,
          "velocity": 0.7559055118110236
        },
        {
          "duration": 0.11538450000000111,
          "durationTicks": 240,
          "midi": 65,
          "name": "F4",
          "ticks": 53760,
          "time": 25.846127999999997,
          "velocity": 0.7559055118110236
        },
        {
          "duration": 0.11538450000000111,
          "durationTicks": 240,
          "midi": 64,
          "name": "E4",
          "ticks": 54240,
          "time": 26.076896999999995,
          "velocity": 0.7559055118110236
        },
        {
          "duration": 0.11538450000000111,
          "durationTicks": 240,
          "midi": 62,
          "name": "D4",
          "ticks": 54720,
          "time": 26.307665999999998,
          "velocity": 0.7559055118110236
        },
        {
          "duration": 0.11538449999999756,
          "durationTicks": 240,
          "midi": 62,
          "name": "D4",
          "ticks": 55680,
          "time": 26.769204,
          "velocity": 0.7559055118110236
        },
        {
          "duration": 0.11538450000000111,
          "durationTicks": 240,
          "midi": 60,
          "name": "C4",
          "ticks": 56640,
          "time": 27.230741999999996,
          "velocity": 0.7559055118110236
        },
        {
          "duration": 0.11538450000000111,
          "durationTicks": 240,
          "midi": 62,
          "name": "D4",
          "ticks": 57600,
          "time": 27.692279999999997,
          "velocity": 0.7559055118110236
        },
        {
          "duration": 0.11538450000000111,
          "durationTicks": 240,
          "midi": 60,
          "name": "C4",
          "ticks": 58080,
          "time": 27.923048999999995,
          "velocity": 0.7559055118110236
        },
        {
          "duration": 0.11538449999999756,
          "durationTicks": 240,
          "midi": 62,
          "name": "D4",
          "ticks": 58560,
          "time": 28.153817999999998,
          "velocity": 0.7559055118110236
        },
        {
          "duration": 0.11538450000000111,
          "durationTicks": 240,
          "midi": 65,
          "name": "F4",
          "ticks": 59040,
          "time": 28.384586999999996,
          "velocity": 0.7559055118110236
        }
      ],
      "endOfTrackTicks": 59280
    }
  ]
}
